<svg width="71" height="71" viewBox="0 0 71 71" fill="none" xmlns="http://www.w3.org/2000/svg">
<path d="M64.5984 26.4103C64.1122 26.2365 63.668 25.9626 63.2944 25.6062C62.9208 25.2499 62.6262 24.819 62.4296 24.3416C62.233 23.8642 62.1389 23.3509 62.1532 22.8348C62.1676 22.3187 62.2901 21.8113 62.5129 21.3456C63.3679 19.5463 63.6451 17.5265 63.3065 15.5634C62.9678 13.6002 62.0299 11.7901 60.6214 10.3813C59.2129 8.97245 57.4029 8.03409 55.4399 7.69496C53.4769 7.35583 51.457 7.63256 49.6575 8.48716C49.1917 8.7095 48.6844 8.83167 48.1684 8.84579C47.6525 8.85991 47.1393 8.76566 46.662 8.56913C46.1847 8.37261 45.754 8.07817 45.3975 7.70483C45.0411 7.3315 44.767 6.88756 44.5928 6.40169C43.923 4.52798 42.6904 2.90714 41.0637 1.76113C39.437 0.615124 37.4959 0 35.5061 0C33.5162 0 31.5751 0.615124 29.9484 1.76113C28.3217 2.90714 27.0891 4.52798 26.4193 6.40169C26.2455 6.88785 25.9716 7.3321 25.6152 7.70569C25.2589 8.07929 24.8281 8.37391 24.3507 8.57049C23.8733 8.76707 23.3599 8.86123 22.8438 8.84687C22.3277 8.83252 21.8204 8.70997 21.3546 8.48716C19.5542 7.62578 17.531 7.34386 15.5636 7.68025C13.5963 8.01663 11.7817 8.95476 10.3697 10.3654C8.95776 11.7761 8.01795 13.5898 7.67975 15.5568C7.34154 17.5238 7.62159 19.5473 8.4813 21.3486C8.70459 21.8142 8.82751 22.3216 8.8421 22.8379C8.85669 23.3541 8.76262 23.8676 8.56599 24.3452C8.36935 24.8227 8.07455 25.2536 7.70069 25.6099C7.32684 25.9661 6.88227 26.2399 6.39583 26.4133C4.52346 27.0844 2.90412 28.3175 1.75928 29.944C0.614437 31.5705 0 33.511 0 35.5C0 37.489 0.614437 39.4295 1.75928 41.056C2.90412 42.6825 4.52346 43.9156 6.39583 44.5867C6.88329 44.759 7.3291 45.0318 7.70431 45.3875C8.07953 45.7432 8.37577 46.1738 8.57382 46.6514C8.77188 47.1289 8.86731 47.6428 8.85394 48.1596C8.84056 48.6765 8.71868 49.1847 8.4962 49.6514C7.64067 51.4496 7.36258 53.4685 7.70009 55.431C8.03759 57.3935 8.97416 59.2035 10.3813 60.6125C11.7884 62.0216 13.597 62.9607 15.5591 63.3009C17.5211 63.6411 19.5404 63.3659 21.3397 62.5128C21.8055 62.29 22.3128 62.1675 22.8289 62.1531C23.345 62.1388 23.8584 62.2329 24.3358 62.4295C24.8132 62.6261 25.244 62.9207 25.6003 63.2943C25.9567 63.6679 26.2306 64.1122 26.4045 64.5983C27.0742 66.472 28.3068 68.0929 29.9335 69.2389C31.5602 70.3849 33.5013 71 35.4912 71C37.481 71 39.4221 70.3849 41.0488 69.2389C42.6755 68.0929 43.9081 66.472 44.5779 64.5983C44.7517 64.1122 45.0256 63.6679 45.382 63.2943C45.7383 62.9207 46.1691 62.6261 46.6465 62.4295C47.124 62.2329 47.6373 62.1388 48.1534 62.1531C48.6695 62.1675 49.1768 62.29 49.6426 62.5128C51.4419 63.3679 53.4617 63.6451 55.4248 63.3064C57.3879 62.9677 59.1981 62.0298 60.6069 60.6213C62.0157 59.2128 62.9541 57.4028 63.2932 55.4398C63.6323 53.4768 63.3556 51.4569 62.501 49.6574C62.2787 49.1916 62.1565 48.6843 62.1424 48.1683C62.1283 47.6524 62.2225 47.1392 62.419 46.6619C62.6156 46.1846 62.91 45.7539 63.2833 45.3975C63.6567 45.041 64.1006 44.7669 64.5865 44.5927C66.4602 43.9229 68.081 42.6903 69.227 41.0636C70.3731 39.4369 70.9882 37.4958 70.9882 35.506C70.9882 33.5161 70.3731 31.575 69.227 29.9483C68.081 28.3216 66.4602 27.089 64.5865 26.4193L64.5984 26.4103ZM62.6023 38.9798C61.3303 39.4322 60.1675 40.1465 59.1888 41.0764C58.2102 42.0064 57.4376 43.1314 56.9209 44.3786C56.4043 45.6259 56.1551 46.9677 56.1895 48.3173C56.2238 49.6669 56.541 50.9942 57.1205 52.2136C57.4484 52.9023 57.555 53.6757 57.4254 54.4274C57.2959 55.1791 56.9366 55.8722 56.3971 56.4115C55.8575 56.9507 55.1642 57.3095 54.4124 57.4386C53.6606 57.5677 52.8873 57.4607 52.1988 57.1323C50.9797 56.5529 49.6525 56.2357 48.3031 56.2014C46.9537 56.167 45.6121 56.4162 44.3651 56.9329C43.1181 57.4496 41.9934 58.2222 41.0637 59.2008C40.134 60.1794 39.42 61.3423 38.9679 62.6141C38.7135 63.3328 38.2425 63.955 37.6199 64.395C36.9973 64.8351 36.2536 65.0713 35.4912 65.0713C34.7287 65.0713 33.9851 64.8351 33.3624 64.395C32.7398 63.955 32.2689 63.3328 32.0144 62.6141C31.5616 61.3424 30.8471 60.1799 29.917 59.2015C28.987 58.2231 27.8621 57.4507 26.6149 56.9341C25.3678 56.4175 24.0262 56.1682 22.6767 56.2024C21.3273 56.2365 20 56.5533 18.7806 57.1323C18.092 57.4592 17.319 57.5649 16.5679 57.435C15.8168 57.305 15.1244 56.9456 14.5857 56.4063C14.0471 55.867 13.6886 55.1741 13.5595 54.4228C13.4304 53.6716 13.5371 52.8988 13.8648 52.2106C14.4442 50.9913 14.7612 49.6639 14.7954 48.3144C14.8295 46.9649 14.58 45.6232 14.0631 44.3761C13.5461 43.1291 12.7732 42.0044 11.7942 41.0748C10.8153 40.1453 9.65214 39.4315 8.38001 38.9798C7.66266 38.7239 7.04201 38.2525 6.60315 37.63C6.1643 37.0075 5.92872 36.2646 5.92872 35.503C5.92872 34.7414 6.1643 33.9984 6.60315 33.376C7.04201 32.7535 7.66266 32.282 8.38001 32.0262C9.65255 31.5746 10.8161 30.8607 11.7952 29.9309C12.7744 29.0011 13.5474 27.876 14.0641 26.6284C14.5809 25.3809 14.8299 24.0388 14.795 22.6889C14.7602 21.3391 14.4423 20.0116 13.8618 18.7924C13.5345 18.104 13.4283 17.3311 13.5578 16.5799C13.6874 15.8288 14.0463 15.1361 14.5853 14.5971C15.1243 14.0581 15.817 13.6992 16.5681 13.5697C17.3193 13.4401 18.0922 13.5463 18.7806 13.8736C19.9999 14.4531 21.3273 14.7703 22.6769 14.8047C24.0264 14.8391 25.3682 14.5899 26.6155 14.0732C27.8628 13.5566 28.9877 12.784 29.9177 11.8053C30.8477 10.8267 31.562 9.6638 32.0144 8.39183C32.2689 7.67313 32.7398 7.05096 33.3624 6.61093C33.9851 6.17089 34.7287 5.93462 35.4912 5.93462C36.2536 5.93462 36.9973 6.17089 37.6199 6.61093C38.2425 7.05096 38.7135 7.67313 38.9679 8.39183C39.4204 9.6638 40.1346 10.8267 41.0646 11.8053C41.9946 12.784 43.1196 13.5566 44.3668 14.0732C45.6141 14.5899 46.9559 14.8391 48.3055 14.8047C49.6551 14.7703 50.9824 14.4531 52.2018 13.8736C52.8905 13.5457 53.6639 13.4392 54.4156 13.5687C55.1673 13.6983 55.8604 14.0575 56.3996 14.597C56.9389 15.1366 57.2977 15.8299 57.4268 16.5817C57.5558 17.3335 57.4489 18.1069 57.1205 18.7954C56.541 20.0145 56.2239 21.3416 56.1895 22.691C56.1552 24.0404 56.4044 25.382 56.9211 26.629C57.4377 27.876 58.2104 29.0008 59.189 29.9305C60.1676 30.8601 61.3304 31.5741 62.6023 32.0262C63.321 32.2807 63.9432 32.7516 64.3832 33.3743C64.8232 33.9969 65.0595 34.7406 65.0595 35.503C65.0595 36.2654 64.8232 37.0091 64.3832 37.6317C63.9432 38.2543 63.321 38.7253 62.6023 38.9798V38.9798Z" fill="#717479"/>
<circle cx="35.8635" cy="35.8744" r="4.82052" stroke="#717479" stroke-width="6"/>
</svg>
