<svg width="86" height="84" viewBox="0 0 86 84" fill="none" xmlns="http://www.w3.org/2000/svg">
<path d="M43 0C34.4954 0 26.1818 2.46326 19.1105 7.07828C12.0392 11.6933 6.52777 18.2528 3.2732 25.9273C0.0186313 33.6018 -0.832912 42.0466 0.826252 50.1938C2.48542 58.341 6.58077 65.8247 12.5944 71.6985C18.6081 77.5723 26.2699 81.5724 34.6111 83.193C42.9523 84.8135 51.5982 83.9818 59.4554 80.8029C67.3126 77.624 74.0283 72.2408 78.7532 65.3339C83.4781 58.4271 86 50.3068 86 42C85.9877 30.8646 81.4534 20.1887 73.392 12.3148C65.3306 4.4409 54.4005 0.0120438 43 0V0ZM77.3033 31.92L45.3829 37.982C44.8806 37.2246 44.4397 36.4301 44.0643 35.6055L32.0959 8.6555C36.6268 7.23702 41.4018 6.71528 46.1416 7.12079C50.8814 7.5263 55.4909 8.85092 59.7003 11.0172C63.9097 13.1834 67.6346 16.1478 70.6571 19.7369C73.6797 23.326 75.9391 27.4678 77.3033 31.92V31.92ZM43 77C35.0705 77.0028 27.3642 74.4353 21.0894 69.7C14.8146 64.9647 10.3261 58.3294 8.32759 50.8343C6.32909 43.3392 6.93361 35.4083 10.0464 28.2849C13.1591 21.1615 18.6042 15.2485 25.5277 11.473L37.4888 38.3915C39.1908 42.2176 41.8633 45.5568 45.2539 48.0935L69.0938 65.9155C65.7544 69.4112 61.7148 72.199 57.226 74.1058C52.7372 76.0127 47.895 76.9978 43 77V77ZM73.4583 60.3575L51.5104 43.9495L78.6757 38.794C78.7724 39.844 78.8405 40.9185 78.8405 42C78.8374 48.4901 76.9729 54.8496 73.4583 60.3575Z" fill="#FF115E"/>
</svg>
