<svg width="85" height="85" viewBox="0 0 85 85" fill="none" xmlns="http://www.w3.org/2000/svg">
<path d="M81.4583 77.9167H17.7083C14.8904 77.9167 12.1879 76.7973 10.1953 74.8047C8.20275 72.8121 7.08333 70.1096 7.08333 67.2917V3.54167C7.08333 2.60236 6.71019 1.70152 6.046 1.03733C5.38181 0.373139 4.48098 0 3.54167 0C2.60236 0 1.70152 0.373139 1.03733 1.03733C0.373139 1.70152 0 2.60236 0 3.54167L0 67.2917C0.00562366 71.9865 1.87312 76.4874 5.19286 79.8071C8.5126 83.1269 13.0135 84.9944 17.7083 85H81.4583C82.3976 85 83.2985 84.6269 83.9627 83.9627C84.6269 83.2985 85 82.3976 85 81.4583C85 80.519 84.6269 79.6182 83.9627 78.954C83.2985 78.2898 82.3976 77.9167 81.4583 77.9167Z" fill="#FF115E"/>
<path d="M21.5 71C22.4283 71 23.3185 70.6137 23.9749 69.9261C24.6313 69.2384 25 68.3058 25 67.3333V41.6667C25 40.6942 24.6313 39.7616 23.9749 39.0739C23.3185 38.3863 22.4283 38 21.5 38C20.5717 38 19.6815 38.3863 19.0251 39.0739C18.3687 39.7616 18 40.6942 18 41.6667V67.3333C18 68.3058 18.3687 69.2384 19.0251 69.9261C19.6815 70.6137 20.5717 71 21.5 71Z" fill="#FF115E"/>
<path d="M35 34.6364V67.3636C35 68.3281 35.4214 69.253 36.1716 69.9349C36.9217 70.6169 37.9391 71 39 71C40.0609 71 41.0783 70.6169 41.8284 69.9349C42.5786 69.253 43 68.3281 43 67.3636V34.6364C43 33.6719 42.5786 32.747 41.8284 32.0651C41.0783 31.3831 40.0609 31 39 31C37.9391 31 36.9217 31.3831 36.1716 32.0651C35.4214 32.747 35 33.6719 35 34.6364Z" fill="#FF115E"/>
<path d="M53 45.625V67.375C53 68.3364 53.4214 69.2584 54.1716 69.9383C54.9217 70.6181 55.9391 71 57 71C58.0609 71 59.0783 70.6181 59.8284 69.9383C60.5786 69.2584 61 68.3364 61 67.375V45.625C61 44.6636 60.5786 43.7416 59.8284 43.0617C59.0783 42.3819 58.0609 42 57 42C55.9391 42 54.9217 42.3819 54.1716 43.0617C53.4214 43.7416 53 44.6636 53 45.625Z" fill="#FF115E"/>
<path d="M71 31.5833V67.4167C71 68.367 71.3687 69.2785 72.0251 69.9505C72.6815 70.6225 73.5717 71 74.5 71C75.4283 71 76.3185 70.6225 76.9749 69.9505C77.6313 69.2785 78 68.367 78 67.4167V31.5833C78 30.633 77.6313 29.7215 76.9749 29.0495C76.3185 28.3775 75.4283 28 74.5 28C73.5717 28 72.6815 28.3775 72.0251 29.0495C71.3687 29.7215 71 30.633 71 31.5833Z" fill="#FF115E"/>
<path d="M20.5805 31C21.5303 30.9998 22.4411 30.6363 23.1125 29.9894L35.9551 17.6207C36.6377 16.9945 37.5443 16.6451 38.4871 16.6451C39.4298 16.6451 40.3364 16.9945 41.019 17.6207L48.7976 25.1123C50.8124 27.0521 53.5447 28.1419 56.3936 28.1419C59.2425 28.1419 61.9747 27.0521 63.9895 25.1123L83.9947 5.84532C84.647 5.1948 85.008 4.32354 84.9999 3.41918C84.9917 2.51483 84.6151 1.64973 83.9511 1.01023C83.2871 0.370733 82.3888 0.007989 81.4498 0.000130387C80.5108 -0.00772823 79.6062 0.339927 78.9307 0.968218L58.9256 20.2317C58.254 20.8784 57.3432 21.2416 56.3936 21.2416C55.4439 21.2416 54.5332 20.8784 53.8616 20.2317L46.083 12.7436C44.0682 10.8038 41.336 9.71403 38.4871 9.71403C35.6382 9.71403 32.9059 10.8038 30.8911 12.7436L18.0486 25.1123C17.5479 25.5947 17.2069 26.2092 17.0688 26.8782C16.9307 27.5471 17.0016 28.2405 17.2726 28.8707C17.5436 29.5008 18.0025 30.0395 18.5913 30.4185C19.1801 30.7975 19.8723 30.9999 20.5805 31V31Z" fill="#FF115E"/>
</svg>
