<svg width="91" height="91" viewBox="0 0 91 91" fill="none" xmlns="http://www.w3.org/2000/svg">
<path d="M72.0417 7.58333H68.25V3.79167C68.25 2.78605 67.8505 1.82163 67.1395 1.11055C66.4284 0.399478 65.4639 0 64.4583 0C63.4527 0 62.4883 0.399478 61.7772 1.11055C61.0661 1.82163 60.6667 2.78605 60.6667 3.79167V7.58333H30.3333V3.79167C30.3333 2.78605 29.9339 1.82163 29.2228 1.11055C28.5117 0.399478 27.5473 0 26.5417 0C25.5361 0 24.5716 0.399478 23.8606 1.11055C23.1495 1.82163 22.75 2.78605 22.75 3.79167V7.58333H18.9583C13.9321 7.58935 9.11349 9.58868 5.55942 13.1428C2.00534 16.6968 0.00602063 21.5155 0 26.5417L0 72.0417C0.00602063 77.0679 2.00534 81.8865 5.55942 85.4406C9.11349 88.9947 13.9321 90.994 18.9583 91H72.0417C77.0679 90.994 81.8865 88.9947 85.4406 85.4406C88.9947 81.8865 90.994 77.0679 91 72.0417V26.5417C90.994 21.5155 88.9947 16.6968 85.4406 13.1428C81.8865 9.58868 77.0679 7.58935 72.0417 7.58333V7.58333ZM7.58333 26.5417C7.58333 23.5248 8.78177 20.6316 10.915 18.4983C13.0482 16.3651 15.9415 15.1667 18.9583 15.1667H72.0417C75.0585 15.1667 77.9518 16.3651 80.085 18.4983C82.2182 20.6316 83.4167 23.5248 83.4167 26.5417V30.3333H7.58333V26.5417ZM72.0417 83.4167H18.9583C15.9415 83.4167 13.0482 82.2182 10.915 80.085C8.78177 77.9518 7.58333 75.0585 7.58333 72.0417V37.9167H83.4167V72.0417C83.4167 75.0585 82.2182 77.9518 80.085 80.085C77.9518 82.2182 75.0585 83.4167 72.0417 83.4167Z" fill="#FF115E"/>
<path d="M45.5001 63.1428C48.7481 63.1428 51.381 60.5098 51.381 57.2618C51.381 54.0139 48.7481 51.3809 45.5001 51.3809C42.2521 51.3809 39.6191 54.0139 39.6191 57.2618C39.6191 60.5098 42.2521 63.1428 45.5001 63.1428Z" fill="#FF115E"/>
<path d="M26.619 63.1428C29.6961 63.1428 32.1905 60.5098 32.1905 57.2618C32.1905 54.0139 29.6961 51.3809 26.619 51.3809C23.542 51.3809 21.0476 54.0139 21.0476 57.2618C21.0476 60.5098 23.542 63.1428 26.619 63.1428Z" fill="#FF115E"/>
<path d="M64.381 63.1428C67.458 63.1428 69.9524 60.5098 69.9524 57.2618C69.9524 54.0139 67.458 51.3809 64.381 51.3809C61.304 51.3809 58.8096 54.0139 58.8096 57.2618C58.8096 60.5098 61.304 63.1428 64.381 63.1428Z" fill="#FF115E"/>
</svg>
