<svg width="74" height="88" viewBox="0 0 74 88" fill="none" xmlns="http://www.w3.org/2000/svg">
<path d="M55 51.3334C55 52.3059 54.6137 53.2385 53.9261 53.9261C53.2384 54.6138 52.3058 55.0001 51.3333 55.0001H22C21.0275 55.0001 20.0949 54.6138 19.4073 53.9261C18.7196 53.2385 18.3333 52.3059 18.3333 51.3334C18.3333 50.361 18.7196 49.4283 19.4073 48.7407C20.0949 48.0531 21.0275 47.6668 22 47.6668H51.3333C52.3058 47.6668 53.2384 48.0531 53.9261 48.7407C54.6137 49.4283 55 50.361 55 51.3334ZM40.3333 62.3334H22C21.0275 62.3334 20.0949 62.7197 19.4073 63.4074C18.7196 64.095 18.3333 65.0276 18.3333 66.0001C18.3333 66.9725 18.7196 67.9052 19.4073 68.5928C20.0949 69.2804 21.0275 69.6668 22 69.6668H40.3333C41.3058 69.6668 42.2384 69.2804 42.9261 68.5928C43.6137 67.9052 44 66.9725 44 66.0001C44 65.0276 43.6137 64.095 42.9261 63.4074C42.2384 62.7197 41.3058 62.3334 40.3333 62.3334ZM73.3333 38.4451V69.6668C73.3275 74.5273 71.3941 79.187 67.9572 82.6239C64.5203 86.0609 59.8605 87.9943 55 88.0001H18.3333C13.4728 87.9943 8.81305 86.0609 5.37614 82.6239C1.93923 79.187 0.00582214 74.5273 0 69.6668V18.3334C0.00582214 13.4729 1.93923 8.81313 5.37614 5.37622C8.81305 1.93932 13.4728 0.00590666 18.3333 8.45118e-05H34.8883C38.2603 -0.00859421 41.6005 0.65124 44.7158 1.94143C47.8312 3.23163 50.6599 5.12659 53.0383 7.51675L65.813 20.2988C68.2045 22.6756 70.1007 25.5034 71.3916 28.6183C72.6825 31.7332 73.3425 35.0733 73.3333 38.4451V38.4451ZM47.8537 12.7014C46.6997 11.5837 45.4041 10.6221 44 9.84142V25.6668C44 26.6392 44.3863 27.5718 45.0739 28.2595C45.7616 28.9471 46.6942 29.3334 47.6667 29.3334H63.492C62.7108 27.9298 61.748 26.6353 60.6283 25.4834L47.8537 12.7014ZM66 38.4451C66 37.8401 65.8827 37.2608 65.8277 36.6668H47.6667C44.7493 36.6668 41.9514 35.5078 39.8885 33.4449C37.8256 31.382 36.6667 28.5841 36.6667 25.6668V7.50575C36.0727 7.45075 35.4897 7.33342 34.8883 7.33342H18.3333C15.416 7.33342 12.6181 8.49234 10.5552 10.5552C8.49226 12.6181 7.33333 15.416 7.33333 18.3334V69.6668C7.33333 72.5841 8.49226 75.382 10.5552 77.4449C12.6181 79.5078 15.416 80.6668 18.3333 80.6668H55C57.9174 80.6668 60.7153 79.5078 62.7782 77.4449C64.8411 75.382 66 72.5841 66 69.6668V38.4451Z" fill="#FF115E"/>
</svg>
