<svg width="83" height="79" viewBox="0 0 83 79" fill="none" xmlns="http://www.w3.org/2000/svg">
<path d="M64.0616 66.0404C64.3607 66.3754 64.5909 66.7661 64.7389 67.1902C64.8869 67.6142 64.9499 68.0633 64.9241 68.5117C64.8984 68.9601 64.7846 69.399 64.5891 69.8034C64.3936 70.2077 64.1203 70.5696 63.7848 70.8682L58.366 75.6993C57.4375 76.6185 56.3365 77.3449 55.1262 77.8369C53.916 78.3289 52.6204 78.5766 51.314 78.5659C49.959 78.5686 48.6169 78.3038 47.3646 77.7867C46.1122 77.2696 44.9743 76.5103 44.016 75.5524L38.7406 70.8579C38.4055 70.5596 38.1324 70.1981 37.9369 69.7942C37.7414 69.3902 37.6274 68.9518 37.6014 68.5038C37.5489 67.5991 37.8579 66.7105 38.4605 66.0336C39.0631 65.3567 39.9099 64.9469 40.8146 64.8944C41.2626 64.8684 41.7113 64.9308 42.1351 65.0782C42.559 65.2256 42.9496 65.4551 43.2848 65.7534L47.8461 69.8329V44.3993C47.8461 43.4931 48.206 42.6241 48.8468 41.9833C49.4875 41.3426 50.3566 40.9826 51.2627 40.9826C52.1689 40.9826 53.0379 41.3426 53.6787 41.9833C54.3194 42.6241 54.6794 43.4931 54.6794 44.3993V69.8364L59.2406 65.7637C59.9169 65.1616 60.8044 64.8526 61.7084 64.9045C62.6123 64.9564 63.4587 65.365 64.0616 66.0404V66.0404ZM62.7291 21.716C62.1424 21.5338 61.61 21.2091 61.1795 20.7709C60.7491 20.3327 60.4339 19.7946 60.2622 19.2048C58.4531 13.3967 54.7582 8.35818 49.7626 4.88693C44.767 1.41567 38.7561 -0.28989 32.6818 0.0403151C26.6076 0.37052 20.817 2.71762 16.2271 6.70995C11.6372 10.7023 8.51029 16.1117 7.34147 22.0816C6.14218 28.1189 7.11003 34.3857 10.0748 39.7799C6.61867 41.5643 3.80832 44.3865 2.03852 47.8501C0.268717 51.3137 -0.371614 55.2447 0.207469 59.0909C1.09803 63.5593 3.49025 67.5886 6.98688 70.5097C10.4835 73.4308 14.8741 75.0679 19.4296 75.1493H27.3461C28.2522 75.1493 29.1212 74.7893 29.762 74.1486C30.4027 73.5078 30.7627 72.6388 30.7627 71.7326C30.7627 70.8264 30.4027 69.9574 29.762 69.3167C29.1212 68.6759 28.2522 68.3159 27.3461 68.3159H19.4296C16.5117 68.2599 13.6971 67.225 11.438 65.3773C9.17888 63.5296 7.60619 60.9763 6.97247 58.1274C6.60146 55.6796 7.00628 53.1771 8.13012 50.9711C9.25395 48.7651 11.0404 46.9664 13.2386 45.8274C14.8055 44.9615 15.9683 43.5133 16.4754 41.7964C16.9825 40.0795 16.793 38.232 15.9481 36.6537C14.6214 34.1235 13.8382 31.3439 13.6488 28.4933C13.4594 25.6426 13.8679 22.7839 14.8482 20.1004C15.8284 17.4169 17.3587 14.9679 19.3409 12.9106C21.3232 10.8532 23.7135 9.23285 26.3587 8.15349C29.0039 7.07414 31.8455 6.55959 34.7012 6.64285C37.5569 6.72612 40.3637 7.40536 42.9415 8.637C45.5193 9.86865 47.8112 11.6255 49.6702 13.7949C51.5291 15.9642 52.9142 18.4982 53.7364 21.2343C54.242 22.8835 55.1429 24.3843 56.3606 25.6062C57.5783 26.828 59.076 27.734 60.7235 28.2453C65.1866 29.6034 69.0495 32.4501 71.6682 36.311C74.2869 40.172 75.5033 44.8138 75.1145 49.4628C74.8572 53.0777 73.5365 56.5357 71.3186 59.4019C70.7663 60.1204 70.522 61.029 70.6396 61.9276C70.7572 62.8263 71.2269 63.6414 71.9455 64.1937C72.6641 64.746 73.5726 64.9903 74.4713 64.8727C75.3699 64.7551 76.1851 64.2854 76.7374 63.5668C79.7476 59.6422 81.5519 54.9272 81.9307 49.9958C82.4467 43.7969 80.8222 37.6084 77.328 32.4622C73.8338 27.316 68.6811 23.5232 62.7291 21.716V21.716Z" fill="#FF115E"/>
</svg>
