<svg width="62" height="62" viewBox="0 0 62 62" fill="none" xmlns="http://www.w3.org/2000/svg">
<path d="M61.2754 57.6256L45.8682 42.2183C50.0668 37.0833 52.1312 30.5308 51.6342 23.9164C51.1372 17.302 48.117 11.1316 43.1981 6.68154C38.2793 2.23151 31.8382 -0.15771 25.2072 0.00808589C18.5762 0.173882 12.2626 2.88201 7.5723 7.5723C2.88201 12.2626 0.173882 18.5762 0.00808589 25.2072C-0.15771 31.8382 2.23151 38.2793 6.68154 43.1981C11.1316 48.117 17.302 51.1372 23.9164 51.6342C30.5308 52.1312 37.0833 50.0668 42.2183 45.8682L57.6256 61.2754C58.1124 61.7456 58.7644 62.0058 59.4412 61.9999C60.118 61.994 60.7654 61.7226 61.244 61.244C61.7226 60.7654 61.994 60.118 61.9999 59.4412C62.0058 58.7644 61.7456 58.1124 61.2754 57.6256ZM25.8947 46.5444C21.8106 46.5444 17.8182 45.3334 14.4224 43.0643C11.0266 40.7953 8.37984 37.5703 6.81691 33.797C5.25398 30.0238 4.84505 25.8718 5.64182 21.8662C6.4386 17.8605 8.40529 14.1811 11.2932 11.2932C14.1811 8.40529 17.8605 6.4386 21.8662 5.64182C25.8718 4.84505 30.0238 5.25398 33.797 6.81691C37.5703 8.37984 40.7953 11.0266 43.0643 14.4224C45.3334 17.8182 46.5444 21.8106 46.5444 25.8947C46.5383 31.3695 44.3607 36.6183 40.4895 40.4895C36.6183 44.3607 31.3695 46.5383 25.8947 46.5444Z" fill="#717479"/>
</svg>
